<svg width="62" height="50" viewBox="0 0 62 50" fill="none" xmlns="http://www.w3.org/2000/svg">
<path d="M61.048 6.16533C58.8213 7.152 56.4293 7.81866 53.9147 8.12C56.5093 6.56744 58.4505 4.12391 59.376 1.24533C56.9382 2.6933 54.2702 3.71252 51.488 4.25866C49.617 2.26097 47.1388 0.936866 44.4382 0.491927C41.7376 0.0469884 38.9656 0.506107 36.5526 1.798C34.1397 3.0899 32.2207 5.14229 31.0937 7.63654C29.9667 10.1308 29.6948 12.9273 30.32 15.592C25.3805 15.344 20.5483 14.0601 16.1371 11.8237C11.7259 9.58736 7.83423 6.44843 4.71466 2.61066C3.64799 4.45066 3.03466 6.584 3.03466 8.856C3.03347 10.9013 3.53714 12.9153 4.501 14.7193C5.46486 16.5233 6.85909 18.0614 8.55999 19.1973C6.58739 19.1346 4.65832 18.6016 2.93332 17.6427V17.8027C2.93313 20.6713 3.92541 23.4517 5.74181 25.672C7.55821 27.8923 10.0868 29.4158 12.8987 29.984C11.0687 30.4792 9.15022 30.5522 7.28799 30.1973C8.08132 32.6656 9.62665 34.8241 11.7076 36.3705C13.7886 37.9169 16.3011 38.7738 18.8933 38.8213C14.4929 42.2758 9.05836 44.1496 3.46399 44.1413C2.47301 44.1416 1.48286 44.0837 0.498657 43.968C6.17726 47.6191 12.7876 49.5568 19.5387 49.5493C42.392 49.5493 54.8853 30.6213 54.8853 14.2053C54.8853 13.672 54.872 13.1333 54.848 12.6C57.2781 10.8426 59.3758 8.66638 61.0427 6.17333L61.048 6.16533V6.16533Z" fill="#9BA3AE"/>
</svg>
