<svg width="64" height="64" viewBox="0 0 64 64" fill="none" xmlns="http://www.w3.org/2000/svg">
<path d="M12.5481 0.0160065C5.65421 0.0160065 0.0119629 5.65812 0.0119629 12.5521V51.454C0.0119629 58.3479 5.65408 63.988 12.5481 63.988H51.45C58.3439 63.988 63.984 58.3479 63.984 51.454V12.5521C63.984 5.65825 58.3439 0.0160065 51.45 0.0160065H12.5481ZM15.7011 10.5727C19.0066 10.5727 21.0426 12.7427 21.1055 15.5951C21.1055 18.3845 19.0065 20.6155 15.6372 20.6155H15.5752C12.3326 20.6155 10.2368 18.3846 10.2368 15.5951C10.2368 12.7427 12.396 10.5727 15.7011 10.5727H15.7011ZM44.1863 23.9045C50.5433 23.9045 55.3088 28.0595 55.3088 36.9884V53.6572H45.6478V38.106C45.6478 34.1982 44.2496 31.532 40.7534 31.532C38.0843 31.532 36.4934 33.329 35.7949 35.065C35.5397 35.686 35.477 36.5534 35.477 37.4222V53.6572H25.816C25.816 53.6572 25.9428 27.3139 25.816 24.5862H35.479V28.703C36.7628 26.7222 39.0593 23.9045 44.1863 23.9045V23.9045ZM10.8067 24.5884H20.4677V53.6573H10.8067V24.5884V24.5884Z" fill="#9BA3AE"/>
</svg>
